<svg width="20" height="21" viewBox="0 0 20 21" fill="none" xmlns="http://www.w3.org/2000/svg">
<path d="M17.5 16.578H4.16667V3.24468C4.16667 3.02367 4.07887 2.8117 3.92259 2.65542C3.76631 2.49914 3.55435 2.41135 3.33333 2.41135C3.11232 2.41135 2.90036 2.49914 2.74408 2.65542C2.5878 2.8117 2.5 3.02367 2.5 3.24468V17.4113C2.5 17.6324 2.5878 17.8443 2.74408 18.0006C2.90036 18.1569 3.11232 18.2447 3.33333 18.2447H17.5C17.721 18.2447 17.933 18.1569 18.0893 18.0006C18.2455 17.8443 18.3333 17.6324 18.3333 17.4113C18.3333 17.1903 18.2455 16.9784 18.0893 16.8221C17.933 16.6658 17.721 16.578 17.5 16.578Z" fill="#464255"/>
<path d="M5.83337 9.91137V14.078C5.83337 14.299 5.92117 14.511 6.07745 14.6673C6.23373 14.8236 6.44569 14.9114 6.66671 14.9114C6.88772 14.9114 7.09968 14.8236 7.25596 14.6673C7.41224 14.511 7.50004 14.299 7.50004 14.078V9.91137C7.50004 9.69035 7.41224 9.47839 7.25596 9.32211C7.09968 9.16583 6.88772 9.07803 6.66671 9.07803C6.44569 9.07803 6.23373 9.16583 6.07745 9.32211C5.92117 9.47839 5.83337 9.69035 5.83337 9.91137Z" fill="#464255"/>
<path d="M9.16663 5.74468V14.078C9.16663 14.299 9.25442 14.511 9.4107 14.6673C9.56698 14.8235 9.77895 14.9113 9.99996 14.9113C10.221 14.9113 10.4329 14.8235 10.5892 14.6673C10.7455 14.511 10.8333 14.299 10.8333 14.078V5.74468C10.8333 5.52367 10.7455 5.3117 10.5892 5.15542C10.4329 4.99914 10.221 4.91135 9.99996 4.91135C9.77895 4.91135 9.56698 4.99914 9.4107 5.15542C9.25442 5.3117 9.16663 5.52367 9.16663 5.74468Z" fill="#464255"/>
<path d="M12.5 7.41137V14.078C12.5 14.299 12.5878 14.511 12.7441 14.6673C12.9004 14.8236 13.1123 14.9114 13.3333 14.9114C13.5543 14.9114 13.7663 14.8236 13.9226 14.6673C14.0789 14.511 14.1667 14.299 14.1667 14.078V7.41137C14.1667 7.19035 14.0789 6.97839 13.9226 6.82211C13.7663 6.66583 13.5543 6.57803 13.3333 6.57803C13.1123 6.57803 12.9004 6.66583 12.7441 6.82211C12.5878 6.97839 12.5 7.19035 12.5 7.41137Z" fill="#464255"/>
<path d="M15.8334 3.24468V14.078C15.8334 14.299 15.9212 14.511 16.0775 14.6673C16.2337 14.8235 16.4457 14.9113 16.6667 14.9113C16.8877 14.9113 17.0997 14.8235 17.256 14.6673C17.4122 14.511 17.5 14.299 17.5 14.078V3.24468C17.5 3.02367 17.4122 2.8117 17.256 2.65542C17.0997 2.49914 16.8877 2.41135 16.6667 2.41135C16.4457 2.41135 16.2337 2.49914 16.0775 2.65542C15.9212 2.8117 15.8334 3.02367 15.8334 3.24468Z" fill="#464255"/>
</svg>
