<svg width="20" height="21" viewBox="0 0 20 21" fill="none" xmlns="http://www.w3.org/2000/svg">
<path d="M17.5002 4.91136H2.5002C2.02798 4.91136 1.66687 4.55024 1.66687 4.07802C1.66687 3.6058 2.02798 3.24469 2.5002 3.24469H17.5002C17.9724 3.24469 18.3335 3.6058 18.3335 4.07802C18.3335 4.55024 17.9724 4.91136 17.5002 4.91136Z" fill="#464255"/>
<path d="M12.5002 9.35575H2.5002C2.02798 9.35575 1.66687 8.99464 1.66687 8.52242C1.66687 8.0502 2.02798 7.68909 2.5002 7.68909H12.5002C12.9724 7.68909 13.3335 8.0502 13.3335 8.52242C13.3335 8.99464 12.9724 9.35575 12.5002 9.35575Z" fill="#464255"/>
<path d="M17.5002 13.8002H2.5002C2.02798 13.8002 1.66687 13.4391 1.66687 12.9669C1.66687 12.4947 2.02798 12.1335 2.5002 12.1335H17.5002C17.9724 12.1335 18.3335 12.4947 18.3335 12.9669C18.3335 13.4391 17.9724 13.8002 17.5002 13.8002Z" fill="#464255"/>
<path d="M12.5002 18.2446H2.5002C2.02798 18.2446 1.66687 17.8835 1.66687 17.4113C1.66687 16.9391 2.02798 16.5779 2.5002 16.5779H12.5002C12.9724 16.5779 13.3335 16.9391 13.3335 17.4113C13.3335 17.8835 12.9724 18.2446 12.5002 18.2446Z" fill="#464255"/>
</svg>
